<mxfile host="app.diagrams.net" modified="2020-11-16T16:41:05.224Z" agent="5.0 (Windows NT 10.0; Win64; x64) AppleWebKit/537.36 (KHTML, like Gecko) Chrome/86.0.4240.198 Safari/537.36" etag="sRKBUwqLVu_o9BpNEmqn" version="13.9.7" type="github">
  <diagram id="ifdL7CLmUJMLqccxygVl" name="Page-1">
    <mxGraphModel dx="1038" dy="580" grid="1" gridSize="10" guides="1" tooltips="1" connect="1" arrows="1" fold="1" page="1" pageScale="1" pageWidth="850" pageHeight="1100" math="0" shadow="0">
      <root>
        <mxCell id="0" />
        <mxCell id="1" parent="0" />
        <mxCell id="4JPZwI6sKCdglMRvzG28-8" value="" style="edgeStyle=orthogonalEdgeStyle;rounded=0;orthogonalLoop=1;jettySize=auto;html=1;" edge="1" parent="1" source="4JPZwI6sKCdglMRvzG28-1" target="4JPZwI6sKCdglMRvzG28-4">
          <mxGeometry relative="1" as="geometry" />
        </mxCell>
        <mxCell id="4JPZwI6sKCdglMRvzG28-9" style="edgeStyle=orthogonalEdgeStyle;rounded=0;orthogonalLoop=1;jettySize=auto;html=1;entryX=0;entryY=0.5;entryDx=0;entryDy=0;" edge="1" parent="1" source="4JPZwI6sKCdglMRvzG28-1" target="4JPZwI6sKCdglMRvzG28-3">
          <mxGeometry relative="1" as="geometry">
            <mxPoint x="150" y="170" as="targetPoint" />
          </mxGeometry>
        </mxCell>
        <mxCell id="4JPZwI6sKCdglMRvzG28-10" style="edgeStyle=orthogonalEdgeStyle;rounded=0;orthogonalLoop=1;jettySize=auto;html=1;entryX=0;entryY=0.5;entryDx=0;entryDy=0;" edge="1" parent="1" source="4JPZwI6sKCdglMRvzG28-1" target="4JPZwI6sKCdglMRvzG28-2">
          <mxGeometry relative="1" as="geometry" />
        </mxCell>
        <mxCell id="4JPZwI6sKCdglMRvzG28-11" style="edgeStyle=orthogonalEdgeStyle;rounded=0;orthogonalLoop=1;jettySize=auto;html=1;entryX=0;entryY=0.5;entryDx=0;entryDy=0;" edge="1" parent="1" source="4JPZwI6sKCdglMRvzG28-1" target="4JPZwI6sKCdglMRvzG28-5">
          <mxGeometry relative="1" as="geometry" />
        </mxCell>
        <mxCell id="4JPZwI6sKCdglMRvzG28-12" style="edgeStyle=orthogonalEdgeStyle;rounded=0;orthogonalLoop=1;jettySize=auto;html=1;entryX=0;entryY=0.5;entryDx=0;entryDy=0;" edge="1" parent="1" source="4JPZwI6sKCdglMRvzG28-1" target="4JPZwI6sKCdglMRvzG28-6">
          <mxGeometry relative="1" as="geometry" />
        </mxCell>
        <mxCell id="4JPZwI6sKCdglMRvzG28-13" style="edgeStyle=orthogonalEdgeStyle;rounded=0;orthogonalLoop=1;jettySize=auto;html=1;entryX=0;entryY=0.5;entryDx=0;entryDy=0;" edge="1" parent="1" source="4JPZwI6sKCdglMRvzG28-1" target="4JPZwI6sKCdglMRvzG28-7">
          <mxGeometry relative="1" as="geometry" />
        </mxCell>
        <mxCell id="4JPZwI6sKCdglMRvzG28-1" value="RMCS" style="rounded=0;whiteSpace=wrap;html=1;" vertex="1" parent="1">
          <mxGeometry x="50" y="240" width="120" height="60" as="geometry" />
        </mxCell>
        <mxCell id="4JPZwI6sKCdglMRvzG28-16" style="edgeStyle=orthogonalEdgeStyle;rounded=0;orthogonalLoop=1;jettySize=auto;html=1;entryX=0;entryY=0;entryDx=0;entryDy=35;entryPerimeter=0;" edge="1" parent="1" source="4JPZwI6sKCdglMRvzG28-2" target="4JPZwI6sKCdglMRvzG28-14">
          <mxGeometry relative="1" as="geometry" />
        </mxCell>
        <mxCell id="4JPZwI6sKCdglMRvzG28-2" value="HVAC" style="rounded=1;whiteSpace=wrap;html=1;" vertex="1" parent="1">
          <mxGeometry x="240" y="10" width="120" height="60" as="geometry" />
        </mxCell>
        <mxCell id="4JPZwI6sKCdglMRvzG28-17" style="edgeStyle=orthogonalEdgeStyle;rounded=0;orthogonalLoop=1;jettySize=auto;html=1;entryX=0;entryY=0;entryDx=0;entryDy=35;entryPerimeter=0;" edge="1" parent="1" source="4JPZwI6sKCdglMRvzG28-3" target="4JPZwI6sKCdglMRvzG28-14">
          <mxGeometry relative="1" as="geometry" />
        </mxCell>
        <mxCell id="4JPZwI6sKCdglMRvzG28-3" value="Technican" style="rounded=1;whiteSpace=wrap;html=1;" vertex="1" parent="1">
          <mxGeometry x="240" y="120" width="120" height="60" as="geometry" />
        </mxCell>
        <mxCell id="4JPZwI6sKCdglMRvzG28-18" style="edgeStyle=orthogonalEdgeStyle;rounded=0;orthogonalLoop=1;jettySize=auto;html=1;entryX=0.095;entryY=0.708;entryDx=0;entryDy=0;entryPerimeter=0;" edge="1" parent="1" source="4JPZwI6sKCdglMRvzG28-4" target="4JPZwI6sKCdglMRvzG28-14">
          <mxGeometry relative="1" as="geometry" />
        </mxCell>
        <mxCell id="4JPZwI6sKCdglMRvzG28-4" value="Customer" style="rounded=1;whiteSpace=wrap;html=1;" vertex="1" parent="1">
          <mxGeometry x="240" y="220" width="120" height="60" as="geometry" />
        </mxCell>
        <mxCell id="4JPZwI6sKCdglMRvzG28-19" style="edgeStyle=orthogonalEdgeStyle;rounded=0;orthogonalLoop=1;jettySize=auto;html=1;entryX=0;entryY=0;entryDx=0;entryDy=35;entryPerimeter=0;" edge="1" parent="1" source="4JPZwI6sKCdglMRvzG28-5" target="4JPZwI6sKCdglMRvzG28-14">
          <mxGeometry relative="1" as="geometry" />
        </mxCell>
        <mxCell id="4JPZwI6sKCdglMRvzG28-5" value="Complaint" style="rounded=1;whiteSpace=wrap;html=1;" vertex="1" parent="1">
          <mxGeometry x="240" y="320" width="120" height="60" as="geometry" />
        </mxCell>
        <mxCell id="4JPZwI6sKCdglMRvzG28-20" style="edgeStyle=orthogonalEdgeStyle;rounded=0;orthogonalLoop=1;jettySize=auto;html=1;entryX=0;entryY=0;entryDx=0;entryDy=35;entryPerimeter=0;" edge="1" parent="1" source="4JPZwI6sKCdglMRvzG28-6" target="4JPZwI6sKCdglMRvzG28-14">
          <mxGeometry relative="1" as="geometry" />
        </mxCell>
        <mxCell id="4JPZwI6sKCdglMRvzG28-6" value="Payment" style="rounded=1;whiteSpace=wrap;html=1;" vertex="1" parent="1">
          <mxGeometry x="240" y="430" width="120" height="60" as="geometry" />
        </mxCell>
        <mxCell id="4JPZwI6sKCdglMRvzG28-21" style="edgeStyle=orthogonalEdgeStyle;rounded=0;orthogonalLoop=1;jettySize=auto;html=1;entryX=0;entryY=0;entryDx=0;entryDy=35;entryPerimeter=0;" edge="1" parent="1" source="4JPZwI6sKCdglMRvzG28-7" target="4JPZwI6sKCdglMRvzG28-14">
          <mxGeometry relative="1" as="geometry" />
        </mxCell>
        <mxCell id="4JPZwI6sKCdglMRvzG28-7" value="R&amp;amp;D DLP" style="rounded=1;whiteSpace=wrap;html=1;" vertex="1" parent="1">
          <mxGeometry x="240" y="520" width="120" height="60" as="geometry" />
        </mxCell>
        <mxCell id="4JPZwI6sKCdglMRvzG28-14" value="Security" style="shape=module;align=left;spacingLeft=20;align=center;verticalAlign=top;" vertex="1" parent="1">
          <mxGeometry x="570" y="190" width="110" height="50" as="geometry" />
        </mxCell>
        <mxCell id="4JPZwI6sKCdglMRvzG28-22" style="edgeStyle=orthogonalEdgeStyle;rounded=0;orthogonalLoop=1;jettySize=auto;html=1;startArrow=classic;startFill=1;endArrow=none;endFill=0;" edge="1" parent="1" source="4JPZwI6sKCdglMRvzG28-15">
          <mxGeometry relative="1" as="geometry">
            <mxPoint x="460" y="335" as="targetPoint" />
          </mxGeometry>
        </mxCell>
        <mxCell id="4JPZwI6sKCdglMRvzG28-15" value="Persistance" style="shape=module;align=left;spacingLeft=20;align=center;verticalAlign=top;" vertex="1" parent="1">
          <mxGeometry x="570" y="310" width="110" height="50" as="geometry" />
        </mxCell>
        <mxCell id="4JPZwI6sKCdglMRvzG28-23" value="Encryption" style="text;html=1;align=center;verticalAlign=middle;resizable=0;points=[];autosize=1;" vertex="1" parent="1">
          <mxGeometry x="465" y="200" width="70" height="20" as="geometry" />
        </mxCell>
        <mxCell id="4JPZwI6sKCdglMRvzG28-24" value="Access Control" style="text;html=1;align=center;verticalAlign=middle;resizable=0;points=[];autosize=1;" vertex="1" parent="1">
          <mxGeometry x="444" y="230" width="100" height="20" as="geometry" />
        </mxCell>
        <mxCell id="4JPZwI6sKCdglMRvzG28-25" value="Encryption" style="text;html=1;align=center;verticalAlign=middle;resizable=0;points=[];autosize=1;" vertex="1" parent="1">
          <mxGeometry x="455" y="310" width="70" height="20" as="geometry" />
        </mxCell>
        <mxCell id="4JPZwI6sKCdglMRvzG28-26" value="Access Control" style="text;html=1;align=center;verticalAlign=middle;resizable=0;points=[];autosize=1;" vertex="1" parent="1">
          <mxGeometry x="465" y="340" width="100" height="20" as="geometry" />
        </mxCell>
      </root>
    </mxGraphModel>
  </diagram>
</mxfile>
